<svg width="39" height="39" viewBox="0 0 39 39" fill="none" xmlns="http://www.w3.org/2000/svg">
<path d="M16.7212 6.2725L2.95747 29.25C2.6737 29.7414 2.52354 30.2986 2.52195 30.8661C2.52037 31.4336 2.6674 31.9916 2.94842 32.4846C3.22944 32.9776 3.63465 33.3885 4.12375 33.6763C4.61284 33.964 5.16877 34.1188 5.73622 34.125H33.2637C33.8312 34.1188 34.3871 33.964 34.8762 33.6763C35.3653 33.3885 35.7705 32.9776 36.0515 32.4846C36.3326 31.9916 36.4796 31.4336 36.478 30.8661C36.4764 30.2986 36.3263 29.7414 36.0425 29.25L22.2787 6.2725C21.989 5.79492 21.5811 5.40007 21.0944 5.12603C20.6077 4.852 20.0585 4.70804 19.5 4.70804C18.9414 4.70804 18.3923 4.852 17.9055 5.12603C17.4188 5.40007 17.0109 5.79492 16.7212 6.2725V6.2725Z" stroke="#E65F5F" stroke-width="3.25" stroke-linecap="round" stroke-linejoin="round"/>
<path d="M19.5 14.625V21.125" stroke="#E65F5F" stroke-width="3.25" stroke-linecap="round" stroke-linejoin="round"/>
<path d="M19.5 27.625H19.5154" stroke="#E65F5F" stroke-width="3.25" stroke-linecap="round" stroke-linejoin="round"/>
</svg>
