<svg width="41" height="41" viewBox="0 0 41 41" fill="none" xmlns="http://www.w3.org/2000/svg">
<g clip-path="url(#clip0_20_20)">
<path d="M38.5134 31.897C38.5134 32.7744 38.1648 33.6158 37.5444 34.2362C36.924 34.8566 36.0826 35.2052 35.2052 35.2052H5.43165C4.55426 35.2052 3.71282 34.8566 3.09242 34.2362C2.47201 33.6158 2.12347 32.7744 2.12347 31.897V13.7021C2.12347 12.8247 2.47201 11.9832 3.09242 11.3628C3.71282 10.7424 4.55426 10.3939 5.43165 10.3939H12.048L15.3562 5.43164H25.2807L28.5888 10.3939H35.2052C36.0826 10.3939 36.924 10.7424 37.5444 11.3628C38.1648 11.9832 38.5134 12.8247 38.5134 13.7021V31.897Z" stroke="#564848" stroke-width="3.30817" stroke-linecap="round" stroke-linejoin="round"/>
<path d="M20.3184 28.5888C23.9725 28.5888 26.9348 25.6266 26.9348 21.9725C26.9348 18.3184 23.9725 15.3561 20.3184 15.3561C16.6643 15.3561 13.7021 18.3184 13.7021 21.9725C13.7021 25.6266 16.6643 28.5888 20.3184 28.5888Z" stroke="#564848" stroke-width="3.30817" stroke-linecap="round" stroke-linejoin="round"/>
</g>
<defs>
<clipPath id="clip0_20_20">
<rect width="39.6981" height="39.6981" fill="white" transform="translate(0.469387 0.469391)"/>
</clipPath>
</defs>
</svg>
