<svg width="38" height="33" viewBox="0 0 38 33" fill="none" xmlns="http://www.w3.org/2000/svg">
<path d="M11.066 2.41607L10.2941 4.71429H4.75C2.13008 4.71429 0 6.82835 0 9.42857V28.2857C0 30.8859 2.13008 33 4.75 33H33.25C35.8699 33 38 30.8859 38 28.2857V9.42857C38 6.82835 35.8699 4.71429 33.25 4.71429H27.7059L26.934 2.41607C26.4516 0.972322 25.0934 0 23.557 0H14.443C12.9066 0 11.5484 0.972322 11.066 2.41607ZM19 25.9286C15.0664 25.9286 11.875 22.7612 11.875 18.8571C11.875 14.9531 15.0664 11.7857 19 11.7857C22.9336 11.7857 26.125 14.9531 26.125 18.8571C26.125 22.7612 22.9336 25.9286 19 25.9286Z" fill="#564848"/>
</svg>
