<svg width="38" height="38" viewBox="0 0 38 38" fill="none" xmlns="http://www.w3.org/2000/svg">
<path d="M1.58333 6.33334V15.8333H11.0833" stroke="white" stroke-width="3.16667" stroke-linecap="round" stroke-linejoin="round"/>
<path d="M36.4167 31.6667V22.1667H26.9167" stroke="white" stroke-width="3.16667" stroke-linecap="round" stroke-linejoin="round"/>
<path d="M32.4425 14.25C31.6395 11.9808 30.2747 9.95193 28.4755 8.35278C26.6763 6.75364 24.5013 5.63633 22.1535 5.10511C19.8057 4.57389 17.3616 4.64608 15.0493 5.31493C12.7369 5.98378 10.6317 7.2275 8.93 8.93004L1.58333 15.8334M36.4167 22.1667L29.07 29.07C27.3683 30.7726 25.2631 32.0163 22.9507 32.6851C20.6384 33.354 18.1943 33.4262 15.8464 32.895C13.4986 32.3637 11.3237 31.2464 9.52448 29.6473C7.72529 28.0481 6.36051 26.0193 5.5575 23.75" stroke="white" stroke-width="3.16667" stroke-linecap="round" stroke-linejoin="round"/>
</svg>
