<svg width="35" height="33" viewBox="0 0 35 33" fill="none" xmlns="http://www.w3.org/2000/svg">
<path d="M9.32676 8.32679C13.8217 3.83186 21.0844 3.81019 25.6082 8.25452L22.6309 11.2246C22.1322 11.7233 21.9877 12.4676 22.2551 13.118C22.5225 13.7684 23.1584 14.1875 23.8594 14.1875H32.4951H33.1094C34.0705 14.1875 34.8438 13.4143 34.8438 12.4532V3.20315C34.8438 2.50218 34.4246 1.86624 33.7742 1.59886C33.1238 1.33147 32.3795 1.47601 31.8809 1.97464L28.8746 4.98089C22.5441 -1.27009 12.3475 -1.24841 6.05312 5.05315C4.28984 6.81644 3.01797 8.89046 2.2375 11.109C1.81113 12.3158 2.44707 13.6311 3.64668 14.0575C4.84629 14.4838 6.16875 13.8479 6.59512 12.6483C7.15156 11.0729 8.05488 9.59144 9.32676 8.32679V8.32679ZM0.15625 20.5469V21.0961V21.1467V29.7969C0.15625 30.4979 0.575391 31.1338 1.22578 31.4012C1.87617 31.6686 2.62051 31.5241 3.11914 31.0254L6.12539 28.0192C12.4559 34.2701 22.6525 34.2485 28.9469 27.9469C30.7102 26.1836 31.9893 24.1096 32.7697 21.8983C33.1961 20.6914 32.5602 19.3762 31.3605 18.9498C30.1609 18.5235 28.8385 19.1594 28.4121 20.359C27.8557 21.9344 26.9523 23.4159 25.6805 24.6805C21.1855 29.1754 13.9229 29.1971 9.39902 24.7528L12.3691 21.7754C12.8678 21.2768 13.0123 20.5325 12.7449 19.8821C12.4775 19.2317 11.8416 18.8125 11.1406 18.8125H2.49766H2.44707H1.89062C0.929492 18.8125 0.15625 19.5858 0.15625 20.5469Z" fill="#564848"/>
</svg>
