<svg width="20" height="19" viewBox="0 0 20 19" fill="none" xmlns="http://www.w3.org/2000/svg">
<g clip-path="url(#clip0_102_92)">
<path d="M8.92346 3.05581L2.21804 14.25C2.07979 14.4894 2.00664 14.7608 2.00587 15.0373C2.00509 15.3138 2.07672 15.5856 2.21363 15.8258C2.35054 16.066 2.54795 16.2662 2.78623 16.4064C3.0245 16.5466 3.29534 16.6219 3.57179 16.625H16.9826C17.2591 16.6219 17.5299 16.5466 17.7682 16.4064C18.0065 16.2662 18.2039 16.066 18.3408 15.8258C18.4777 15.5856 18.5493 15.3138 18.5485 15.0373C18.5478 14.7608 18.4746 14.4894 18.3364 14.25L11.631 3.05581C11.4898 2.82315 11.2911 2.63078 11.054 2.49728C10.8169 2.36378 10.5493 2.29364 10.2772 2.29364C10.0051 2.29364 9.73755 2.36378 9.50043 2.49728C9.2633 2.63078 9.06459 2.82315 8.92346 3.05581V3.05581Z" stroke="#E65F5F" stroke-width="1.58333" stroke-linecap="round" stroke-linejoin="round"/>
<path d="M10.2773 7.125V10.2917" stroke="#E65F5F" stroke-width="1.58333" stroke-linecap="round" stroke-linejoin="round"/>
<path d="M10.2773 13.4583H10.2873" stroke="#E65F5F" stroke-width="1.58333" stroke-linecap="round" stroke-linejoin="round"/>
</g>
<defs>
<clipPath id="clip0_102_92">
<rect width="19" height="19" fill="white" transform="translate(0.777344)"/>
</clipPath>
</defs>
</svg>
